<!-- icon666.com - MILLIONS vector ICONS FREE --><svg viewBox="0 0 53 58" xmlns="http://www.w3.org/2000/svg"><g id="Page-1" fill="none" fill-rule="evenodd"><g id="032---Upload-File" fill-rule="nonzero"><path id="Shape" d="m5 52v-48c0-2.209139 1.790861-4 4-4h40c2.209139 0 4 1.790861 4 4v40l-12 12h-32c-2.209139 0-4-1.790861-4-4z" fill="#b0d3f0"></path><g fill="#285680"><path id="Shape" d="m13 7h-2c-.5522847 0-1-.44771525-1-1s.4477153-1 1-1h2c.5522847 0 1 .44771525 1 1s-.4477153 1-1 1z"></path><path id="Shape" d="m47 7h-30c-.5522847 0-1-.44771525-1-1s.4477153-1 1-1h30c.5522847 0 1 .44771525 1 1s-.4477153 1-1 1z"></path><path id="Shape" d="m13 13h-2c-.5522847 0-1-.4477153-1-1s.4477153-1 1-1h2c.5522847 0 1 .4477153 1 1s-.4477153 1-1 1z"></path><path id="Shape" d="m40 13h-23c-.5522847 0-1-.4477153-1-1s.4477153-1 1-1h23c.5522847 0 1 .4477153 1 1s-.4477153 1-1 1z"></path><path id="Shape" d="m13 19h-2c-.5522847 0-1-.4477153-1-1s.4477153-1 1-1h2c.5522847 0 1 .4477153 1 1s-.4477153 1-1 1z"></path><path id="Shape" d="m33 19h-16c-.5522847 0-1-.4477153-1-1s.4477153-1 1-1h16c.5522847 0 1 .4477153 1 1s-.4477153 1-1 1z"></path></g><path id="Shape" d="m49 35c-.5522847 0-1-.4477153-1-1v-14c0-.5522847.4477153-1 1-1s1 .4477153 1 1v14c0 .5522847-.4477153 1-1 1z" fill="#ecf0f1"></path><path id="Shape" d="m49 41c-.5522847 0-1-.4477153-1-1v-2c0-.5522847.4477153-1 1-1s1 .4477153 1 1v2c0 .5522847-.4477153 1-1 1z" fill="#ecf0f1"></path><path id="Shape" d="m41 56v-8c0-2.209139 1.790861-4 4-4h8z" fill="#90bae1"></path><path id="Shape" d="m31 44h-3c-.5522847 0-1 .4477153-1 1v12c0 .5522847-.4477153 1-1 1h-20c-.55228475 0-1-.4477153-1-1v-12c0-.5522847-.44771525-1-1-1h-3c-.39250783-.0004965-.74843039-.2305711-.91003926-.5882654-.16160888-.3576943-.09901643-.776857.16003926-1.0717346l15-16c.189833-.2152504.4629994-.3385622.75-.3385622s.560167.1233118.75.3385622l15 16c.2590557.2948776.3216481.7140403.1600393 1.0717346-.1616089.3576943-.5175315.5877689-.9100393.5882654z" fill="#955ba5"></path><path id="Shape" d="m12 54v4h-2v-4c0-.5522847.4477153-1 1-1s1 .4477153 1 1z" fill="#894b9d"></path><path id="Shape" d="m11 51c-.5522847 0-1-.4477153-1-1v-2c0-.5522847.4477153-1 1-1s1 .4477153 1 1v2c0 .5522847-.4477153 1-1 1z" fill="#894b9d"></path><path id="Shape" d="m17 51v7h-2v-7c0-.5522847.4477153-1 1-1s1 .4477153 1 1z" fill="#894b9d"></path><path id="Shape" d="m22 54v4h-2v-4c0-.5522847.4477153-1 1-1s1 .4477153 1 1z" fill="#894b9d"></path></g></g></svg>